<svg width="40" height="40" viewBox="0 0 40 40" fill="none" xmlns="http://www.w3.org/2000/svg">
<g style="mix-blend-mode:multiply">
<g clip-path="url(#clip0_2002_1480)">
<path d="M27.5507 20.0465L38.1001 1H27.6316L25.0415 5.6853C22.3839 10.4635 23.3822 16.1841 27.5507 20.0465Z" fill="#FF7985"/>
<path d="M27.5507 20.0465L38.1001 1H27.6316L25.0415 5.6853C22.3839 10.4635 23.3822 16.1841 27.5507 20.0465Z" fill="url(#paint0_linear_2002_1480)"/>
<path d="M27.5101 20.1394L22.2759 29.5763L6.47879 1.03982C2.13492 3.92001 0.73193 9.57422 3.24112 14.1002L17.0417 39H17.0687H27.5236H27.5506L30.1812 34.2483C32.7848 29.5232 31.7191 23.869 27.5101 20.1394Z" fill="#ED4457"/>
<path d="M27.5101 20.1394L22.2759 29.5763L6.47879 1.03982C2.13492 3.92001 0.73193 9.57422 3.24112 14.1002L17.0417 39H17.0687H27.5236H27.5506L30.1812 34.2483C32.7848 29.5232 31.7191 23.869 27.5101 20.1394Z" fill="url(#paint1_linear_2002_1480)"/>
</g>
</g>
<defs>
<linearGradient id="paint0_linear_2002_1480" x1="23.58" y1="20.0465" x2="41.9392" y2="6.02785" gradientUnits="userSpaceOnUse">
<stop stop-color="#FFACA7"/>
<stop offset="1" stop-color="#FF7985"/>
</linearGradient>
<linearGradient id="paint1_linear_2002_1480" x1="26" y1="38.9998" x2="15.7138" y2="-1.58867" gradientUnits="userSpaceOnUse">
<stop stop-color="#D32E5F"/>
<stop offset="1" stop-color="#FF617D"/>
</linearGradient>
<clipPath id="clip0_2002_1480">
<rect width="36.1" height="38" fill="white" transform="translate(2 1)"/>
</clipPath>
</defs>
</svg>
